<mxfile host="app.diagrams.net" modified="2022-01-11T06:43:21.868Z" agent="5.0 (Windows NT 10.0; Win64; x64) AppleWebKit/537.36 (KHTML, like Gecko) Chrome/97.0.4692.71 Safari/537.36 Edg/97.0.1072.55" etag="6LY9BPKvxn9E7OVj-okt" version="16.2.4" type="github">
  <diagram id="C5RBs43oDa-KdzZeNtuy" name="Page-1">
    <mxGraphModel dx="2249" dy="762" grid="1" gridSize="10" guides="1" tooltips="1" connect="1" arrows="1" fold="1" page="1" pageScale="1" pageWidth="827" pageHeight="1169" math="0" shadow="0">
      <root>
        <mxCell id="WIyWlLk6GJQsqaUBKTNV-0" />
        <mxCell id="WIyWlLk6GJQsqaUBKTNV-1" parent="WIyWlLk6GJQsqaUBKTNV-0" />
        <mxCell id="2KQM9kLEEywD0Do3GWEx-4" value="" style="edgeStyle=orthogonalEdgeStyle;rounded=0;orthogonalLoop=1;jettySize=auto;html=1;" edge="1" parent="WIyWlLk6GJQsqaUBKTNV-1" source="2KQM9kLEEywD0Do3GWEx-0" target="2KQM9kLEEywD0Do3GWEx-3">
          <mxGeometry relative="1" as="geometry" />
        </mxCell>
        <mxCell id="2KQM9kLEEywD0Do3GWEx-0" value="输入设备号以及imei查询设备是否可用" style="rounded=0;whiteSpace=wrap;html=1;" vertex="1" parent="WIyWlLk6GJQsqaUBKTNV-1">
          <mxGeometry x="120" y="120" width="130" height="40" as="geometry" />
        </mxCell>
        <mxCell id="2KQM9kLEEywD0Do3GWEx-2" style="edgeStyle=orthogonalEdgeStyle;rounded=0;orthogonalLoop=1;jettySize=auto;html=1;exitX=0.5;exitY=1;exitDx=0;exitDy=0;entryX=0.5;entryY=0;entryDx=0;entryDy=0;" edge="1" parent="WIyWlLk6GJQsqaUBKTNV-1" source="2KQM9kLEEywD0Do3GWEx-1" target="2KQM9kLEEywD0Do3GWEx-0">
          <mxGeometry relative="1" as="geometry" />
        </mxCell>
        <mxCell id="2KQM9kLEEywD0Do3GWEx-1" value="用户登录" style="rounded=0;whiteSpace=wrap;html=1;" vertex="1" parent="WIyWlLk6GJQsqaUBKTNV-1">
          <mxGeometry x="120" y="40" width="130" height="40" as="geometry" />
        </mxCell>
        <mxCell id="2KQM9kLEEywD0Do3GWEx-5" value="N" style="edgeStyle=orthogonalEdgeStyle;rounded=0;orthogonalLoop=1;jettySize=auto;html=1;exitX=1;exitY=0.5;exitDx=0;exitDy=0;entryX=1;entryY=0.5;entryDx=0;entryDy=0;" edge="1" parent="WIyWlLk6GJQsqaUBKTNV-1" source="2KQM9kLEEywD0Do3GWEx-3" target="2KQM9kLEEywD0Do3GWEx-0">
          <mxGeometry relative="1" as="geometry" />
        </mxCell>
        <mxCell id="2KQM9kLEEywD0Do3GWEx-9" value="Y" style="edgeStyle=orthogonalEdgeStyle;rounded=0;orthogonalLoop=1;jettySize=auto;html=1;exitX=0.5;exitY=1;exitDx=0;exitDy=0;entryX=0.5;entryY=0;entryDx=0;entryDy=0;" edge="1" parent="WIyWlLk6GJQsqaUBKTNV-1" source="2KQM9kLEEywD0Do3GWEx-3" target="2KQM9kLEEywD0Do3GWEx-6">
          <mxGeometry relative="1" as="geometry" />
        </mxCell>
        <mxCell id="2KQM9kLEEywD0Do3GWEx-3" value="可用？" style="rhombus;whiteSpace=wrap;html=1;rounded=0;" vertex="1" parent="WIyWlLk6GJQsqaUBKTNV-1">
          <mxGeometry x="130" y="190" width="110" height="40" as="geometry" />
        </mxCell>
        <mxCell id="2KQM9kLEEywD0Do3GWEx-11" value="" style="edgeStyle=orthogonalEdgeStyle;rounded=0;orthogonalLoop=1;jettySize=auto;html=1;" edge="1" parent="WIyWlLk6GJQsqaUBKTNV-1" source="2KQM9kLEEywD0Do3GWEx-6" target="2KQM9kLEEywD0Do3GWEx-10">
          <mxGeometry relative="1" as="geometry" />
        </mxCell>
        <mxCell id="2KQM9kLEEywD0Do3GWEx-6" value="查询用户已为管理员的小区，加个新增小区" style="rounded=0;whiteSpace=wrap;html=1;" vertex="1" parent="WIyWlLk6GJQsqaUBKTNV-1">
          <mxGeometry x="125" y="270" width="120" height="50" as="geometry" />
        </mxCell>
        <mxCell id="2KQM9kLEEywD0Do3GWEx-13" value="Y" style="edgeStyle=orthogonalEdgeStyle;rounded=0;orthogonalLoop=1;jettySize=auto;html=1;" edge="1" parent="WIyWlLk6GJQsqaUBKTNV-1" source="2KQM9kLEEywD0Do3GWEx-10" target="2KQM9kLEEywD0Do3GWEx-12">
          <mxGeometry relative="1" as="geometry" />
        </mxCell>
        <mxCell id="2KQM9kLEEywD0Do3GWEx-15" value="N" style="edgeStyle=orthogonalEdgeStyle;rounded=0;orthogonalLoop=1;jettySize=auto;html=1;" edge="1" parent="WIyWlLk6GJQsqaUBKTNV-1" source="2KQM9kLEEywD0Do3GWEx-10" target="2KQM9kLEEywD0Do3GWEx-14">
          <mxGeometry relative="1" as="geometry" />
        </mxCell>
        <mxCell id="2KQM9kLEEywD0Do3GWEx-10" value="用户选择新增小区?" style="rhombus;whiteSpace=wrap;html=1;rounded=0;" vertex="1" parent="WIyWlLk6GJQsqaUBKTNV-1">
          <mxGeometry x="120" y="340" width="130" height="70" as="geometry" />
        </mxCell>
        <mxCell id="2KQM9kLEEywD0Do3GWEx-19" value="" style="edgeStyle=orthogonalEdgeStyle;rounded=0;orthogonalLoop=1;jettySize=auto;html=1;" edge="1" parent="WIyWlLk6GJQsqaUBKTNV-1" source="2KQM9kLEEywD0Do3GWEx-12" target="2KQM9kLEEywD0Do3GWEx-18">
          <mxGeometry relative="1" as="geometry" />
        </mxCell>
        <mxCell id="2KQM9kLEEywD0Do3GWEx-12" value="跳转到新增小区页面，并且选择地址" style="whiteSpace=wrap;html=1;rounded=0;" vertex="1" parent="WIyWlLk6GJQsqaUBKTNV-1">
          <mxGeometry x="125" y="440" width="120" height="60" as="geometry" />
        </mxCell>
        <mxCell id="2KQM9kLEEywD0Do3GWEx-35" style="edgeStyle=orthogonalEdgeStyle;rounded=0;orthogonalLoop=1;jettySize=auto;html=1;exitX=0.5;exitY=1;exitDx=0;exitDy=0;entryX=0.5;entryY=0;entryDx=0;entryDy=0;" edge="1" parent="WIyWlLk6GJQsqaUBKTNV-1" source="2KQM9kLEEywD0Do3GWEx-14" target="2KQM9kLEEywD0Do3GWEx-33">
          <mxGeometry relative="1" as="geometry">
            <Array as="points">
              <mxPoint y="920" />
              <mxPoint x="185" y="920" />
            </Array>
          </mxGeometry>
        </mxCell>
        <mxCell id="2KQM9kLEEywD0Do3GWEx-14" value="直接将设备更新到小区里面" style="whiteSpace=wrap;html=1;rounded=0;" vertex="1" parent="WIyWlLk6GJQsqaUBKTNV-1">
          <mxGeometry x="-60" y="480" width="120" height="60" as="geometry" />
        </mxCell>
        <mxCell id="2KQM9kLEEywD0Do3GWEx-23" value="Y" style="edgeStyle=orthogonalEdgeStyle;rounded=0;orthogonalLoop=1;jettySize=auto;html=1;" edge="1" parent="WIyWlLk6GJQsqaUBKTNV-1" source="2KQM9kLEEywD0Do3GWEx-18" target="2KQM9kLEEywD0Do3GWEx-22">
          <mxGeometry relative="1" as="geometry" />
        </mxCell>
        <mxCell id="2KQM9kLEEywD0Do3GWEx-48" value="N" style="edgeStyle=orthogonalEdgeStyle;rounded=0;orthogonalLoop=1;jettySize=auto;html=1;exitX=0.5;exitY=1;exitDx=0;exitDy=0;entryX=0.5;entryY=0;entryDx=0;entryDy=0;" edge="1" parent="WIyWlLk6GJQsqaUBKTNV-1" source="2KQM9kLEEywD0Do3GWEx-18" target="2KQM9kLEEywD0Do3GWEx-47">
          <mxGeometry relative="1" as="geometry" />
        </mxCell>
        <mxCell id="2KQM9kLEEywD0Do3GWEx-18" value="用户是否注册?" style="rhombus;whiteSpace=wrap;html=1;rounded=0;" vertex="1" parent="WIyWlLk6GJQsqaUBKTNV-1">
          <mxGeometry x="125" y="530" width="120" height="80" as="geometry" />
        </mxCell>
        <mxCell id="2KQM9kLEEywD0Do3GWEx-25" value="" style="edgeStyle=orthogonalEdgeStyle;rounded=0;orthogonalLoop=1;jettySize=auto;html=1;" edge="1" parent="WIyWlLk6GJQsqaUBKTNV-1" source="2KQM9kLEEywD0Do3GWEx-22" target="2KQM9kLEEywD0Do3GWEx-24">
          <mxGeometry relative="1" as="geometry" />
        </mxCell>
        <mxCell id="2KQM9kLEEywD0Do3GWEx-22" value="用户新增该小区" style="whiteSpace=wrap;html=1;rounded=0;" vertex="1" parent="WIyWlLk6GJQsqaUBKTNV-1">
          <mxGeometry x="280" y="620" width="120" height="60" as="geometry" />
        </mxCell>
        <mxCell id="2KQM9kLEEywD0Do3GWEx-36" style="edgeStyle=orthogonalEdgeStyle;rounded=0;orthogonalLoop=1;jettySize=auto;html=1;exitX=0.5;exitY=1;exitDx=0;exitDy=0;entryX=0.5;entryY=0;entryDx=0;entryDy=0;" edge="1" parent="WIyWlLk6GJQsqaUBKTNV-1" source="2KQM9kLEEywD0Do3GWEx-24" target="2KQM9kLEEywD0Do3GWEx-33">
          <mxGeometry relative="1" as="geometry">
            <Array as="points">
              <mxPoint x="340" y="920" />
              <mxPoint x="185" y="920" />
            </Array>
          </mxGeometry>
        </mxCell>
        <mxCell id="2KQM9kLEEywD0Do3GWEx-24" value="将用户注册成管理员" style="whiteSpace=wrap;html=1;rounded=0;" vertex="1" parent="WIyWlLk6GJQsqaUBKTNV-1">
          <mxGeometry x="280" y="720" width="120" height="50" as="geometry" />
        </mxCell>
        <mxCell id="2KQM9kLEEywD0Do3GWEx-29" value="" style="edgeStyle=orthogonalEdgeStyle;rounded=0;orthogonalLoop=1;jettySize=auto;html=1;" edge="1" parent="WIyWlLk6GJQsqaUBKTNV-1" source="2KQM9kLEEywD0Do3GWEx-26" target="2KQM9kLEEywD0Do3GWEx-28">
          <mxGeometry relative="1" as="geometry" />
        </mxCell>
        <mxCell id="2KQM9kLEEywD0Do3GWEx-26" value="进入注册页面" style="rounded=0;whiteSpace=wrap;html=1;" vertex="1" parent="WIyWlLk6GJQsqaUBKTNV-1">
          <mxGeometry x="125" y="720" width="120" height="40" as="geometry" />
        </mxCell>
        <mxCell id="2KQM9kLEEywD0Do3GWEx-31" value="" style="edgeStyle=orthogonalEdgeStyle;rounded=0;orthogonalLoop=1;jettySize=auto;html=1;" edge="1" parent="WIyWlLk6GJQsqaUBKTNV-1" source="2KQM9kLEEywD0Do3GWEx-28" target="2KQM9kLEEywD0Do3GWEx-30">
          <mxGeometry relative="1" as="geometry" />
        </mxCell>
        <mxCell id="2KQM9kLEEywD0Do3GWEx-28" value="用户注册该小区" style="whiteSpace=wrap;html=1;rounded=0;" vertex="1" parent="WIyWlLk6GJQsqaUBKTNV-1">
          <mxGeometry x="127.5" y="790" width="115" height="50" as="geometry" />
        </mxCell>
        <mxCell id="2KQM9kLEEywD0Do3GWEx-34" value="" style="edgeStyle=orthogonalEdgeStyle;rounded=0;orthogonalLoop=1;jettySize=auto;html=1;" edge="1" parent="WIyWlLk6GJQsqaUBKTNV-1" source="2KQM9kLEEywD0Do3GWEx-30" target="2KQM9kLEEywD0Do3GWEx-33">
          <mxGeometry relative="1" as="geometry" />
        </mxCell>
        <mxCell id="2KQM9kLEEywD0Do3GWEx-30" value="将用户注册成小区管理员" style="whiteSpace=wrap;html=1;rounded=0;" vertex="1" parent="WIyWlLk6GJQsqaUBKTNV-1">
          <mxGeometry x="127.5" y="860" width="115" height="50" as="geometry" />
        </mxCell>
        <mxCell id="2KQM9kLEEywD0Do3GWEx-38" value="N" style="edgeStyle=orthogonalEdgeStyle;rounded=0;orthogonalLoop=1;jettySize=auto;html=1;" edge="1" parent="WIyWlLk6GJQsqaUBKTNV-1" source="2KQM9kLEEywD0Do3GWEx-33" target="2KQM9kLEEywD0Do3GWEx-37">
          <mxGeometry relative="1" as="geometry" />
        </mxCell>
        <mxCell id="2KQM9kLEEywD0Do3GWEx-40" value="" style="edgeStyle=orthogonalEdgeStyle;rounded=0;orthogonalLoop=1;jettySize=auto;html=1;" edge="1" parent="WIyWlLk6GJQsqaUBKTNV-1" source="2KQM9kLEEywD0Do3GWEx-33" target="2KQM9kLEEywD0Do3GWEx-39">
          <mxGeometry relative="1" as="geometry" />
        </mxCell>
        <mxCell id="2KQM9kLEEywD0Do3GWEx-33" value="用户是否继续设置参数" style="rhombus;whiteSpace=wrap;html=1;rounded=0;" vertex="1" parent="WIyWlLk6GJQsqaUBKTNV-1">
          <mxGeometry x="120" y="940" width="130" height="80" as="geometry" />
        </mxCell>
        <mxCell id="2KQM9kLEEywD0Do3GWEx-37" value="设置结束" style="rounded=0;whiteSpace=wrap;html=1;" vertex="1" parent="WIyWlLk6GJQsqaUBKTNV-1">
          <mxGeometry x="125" y="1070" width="120" height="60" as="geometry" />
        </mxCell>
        <mxCell id="2KQM9kLEEywD0Do3GWEx-43" value="" style="edgeStyle=orthogonalEdgeStyle;rounded=0;orthogonalLoop=1;jettySize=auto;html=1;" edge="1" parent="WIyWlLk6GJQsqaUBKTNV-1" source="2KQM9kLEEywD0Do3GWEx-39" target="2KQM9kLEEywD0Do3GWEx-42">
          <mxGeometry relative="1" as="geometry" />
        </mxCell>
        <mxCell id="2KQM9kLEEywD0Do3GWEx-39" value="设置小区费用" style="whiteSpace=wrap;html=1;rounded=0;" vertex="1" parent="WIyWlLk6GJQsqaUBKTNV-1">
          <mxGeometry x="280" y="955" width="120" height="50" as="geometry" />
        </mxCell>
        <mxCell id="2KQM9kLEEywD0Do3GWEx-44" style="edgeStyle=orthogonalEdgeStyle;rounded=0;orthogonalLoop=1;jettySize=auto;html=1;exitX=0.5;exitY=1;exitDx=0;exitDy=0;entryX=1;entryY=0.5;entryDx=0;entryDy=0;" edge="1" parent="WIyWlLk6GJQsqaUBKTNV-1" source="2KQM9kLEEywD0Do3GWEx-42" target="2KQM9kLEEywD0Do3GWEx-37">
          <mxGeometry relative="1" as="geometry" />
        </mxCell>
        <mxCell id="2KQM9kLEEywD0Do3GWEx-42" value="设置小区充值金额" style="whiteSpace=wrap;html=1;rounded=0;" vertex="1" parent="WIyWlLk6GJQsqaUBKTNV-1">
          <mxGeometry x="280" y="1020" width="120" height="40" as="geometry" />
        </mxCell>
        <mxCell id="2KQM9kLEEywD0Do3GWEx-49" style="edgeStyle=orthogonalEdgeStyle;rounded=0;orthogonalLoop=1;jettySize=auto;html=1;exitX=0.5;exitY=1;exitDx=0;exitDy=0;entryX=0.5;entryY=0;entryDx=0;entryDy=0;" edge="1" parent="WIyWlLk6GJQsqaUBKTNV-1" source="2KQM9kLEEywD0Do3GWEx-47" target="2KQM9kLEEywD0Do3GWEx-26">
          <mxGeometry relative="1" as="geometry" />
        </mxCell>
        <mxCell id="2KQM9kLEEywD0Do3GWEx-47" value="用户新增小区" style="rounded=0;whiteSpace=wrap;html=1;" vertex="1" parent="WIyWlLk6GJQsqaUBKTNV-1">
          <mxGeometry x="125" y="650" width="120" height="40" as="geometry" />
        </mxCell>
      </root>
    </mxGraphModel>
  </diagram>
</mxfile>
